<svg width="82" height="83" viewBox="0 0 82 83" fill="none" xmlns="http://www.w3.org/2000/svg">
<path d="M17.1934 6.01823V23.2118H56.8708V6.01823H17.1934ZM54.2256 20.5666H19.8385V8.6634H54.2256V20.5666Z" fill="black"/>
<path d="M50.2583 41.7279H23.8066V44.3731H50.2583V41.7279Z" fill="black"/>
<path d="M34.3867 31.1472H26.4512V33.7924H34.3867V31.1472Z" fill="black"/>
<path d="M47.6132 31.1472H39.6777V33.7924H47.6132V31.1472Z" fill="black"/>
<path d="M34.3867 36.4376H26.4512V39.0828H34.3867V36.4376Z" fill="black"/>
<path d="M47.6132 36.4376H39.6777V39.0828H47.6132V36.4376Z" fill="black"/>
<path d="M56.8712 52.3086H35.71V54.9537H56.8712V52.3086Z" fill="black"/>
<path d="M56.871 57.5989H48.9355V60.2441H56.871V57.5989Z" fill="black"/>
<path d="M43.6454 57.5989H35.71V60.2441H43.6454V57.5989Z" fill="black"/>
<path d="M79.6207 43.0915C81.1774 40.7201 82 37.9612 82 35.115C82 27.0936 75.4731 20.5666 67.4516 20.5666C66.0748 20.5666 64.7469 20.7716 63.4839 21.13V7.34081C63.4839 3.69445 60.5173 0.727905 56.871 0.727905H6.6129C2.96655 0.727905 0 3.69445 0 7.34081V19.244H10.5806V29.0986L5.22419 35.9839C4.47561 36.6479 3.95981 37.7483 3.79713 39.0391L2.69674 47.8501C2.66368 48.1226 2.64516 48.3964 2.64516 48.6701V59.9147C2.64516 60.1898 2.66368 60.4623 2.69674 60.7347L3.79184 69.5021H0V82.7279H18.5161V76.115H67.4516C71.098 76.115 74.0645 73.1485 74.0645 69.5021V62.8892H63.4839V49.1C64.7469 49.4584 66.0748 49.6634 67.4516 49.6634C71.3466 49.6634 75.0062 48.1451 77.7545 45.3862L75.8817 43.5187C73.632 45.7763 70.6377 47.0182 67.4516 47.0182C60.8876 47.0182 55.5484 41.6776 55.5484 35.115C55.5484 28.5524 60.8876 23.2118 67.4516 23.2118C74.0156 23.2118 79.3548 28.5524 79.3548 35.115C79.3548 37.4441 78.6816 39.7004 77.4093 41.6393L79.6207 43.0915ZM2.64516 16.5989V7.34081C2.64516 5.15326 4.42535 3.37307 6.6129 3.37307C8.80045 3.37307 10.5806 5.15326 10.5806 7.34081V16.5989H2.64516ZM5.29032 48.6701C5.29032 48.5061 5.3009 48.3408 5.32074 48.1781L6.42113 39.3684C6.51371 38.6291 6.78484 38.1133 6.9991 37.9466L14.7931 27.9916L14.9161 27.8025C15.211 27.2509 15.5707 27.1795 15.8511 27.1795C16.5918 27.1795 17.1935 27.7813 17.1935 28.5219V28.9716C17.1935 29.2533 17.1076 29.5231 16.9449 29.7519L11.8133 36.9362C11.0065 38.063 10.5806 39.3922 10.5806 40.7783V48.4149C10.5806 49.4346 10.8227 50.4583 11.2776 51.3722L12.4085 53.6311H11.9032V56.2763H15.0959L21.275 50.0972C21.5515 49.8221 21.9337 49.6634 22.3238 49.6634C23.1412 49.6634 23.8065 50.3286 23.8065 51.146C23.8065 51.5428 23.653 51.9144 23.3726 52.1948L13.2258 62.3416V69.5021H6.45816L5.32074 60.408C5.3009 60.244 5.29032 60.0787 5.29032 59.9147V48.6701ZM15.871 80.0827H2.64516V72.1473H15.871V80.0827ZM71.4194 65.5344V69.5021C71.4194 71.6896 69.6392 73.4698 67.4516 73.4698H22.4812C23.3131 72.3642 23.8065 70.99 23.8065 69.5021V65.5344H71.4194ZM60.8387 22.1722C56.1356 24.5859 52.9032 29.4755 52.9032 35.115C52.9032 40.7545 56.1356 45.6441 60.8387 48.0578V62.8892H21.1613V69.5021C21.1613 71.2241 20.0516 72.6789 18.5161 73.2265V69.5021H15.871V63.4367L25.2428 54.0649C26.0231 53.2859 26.4516 52.249 26.4516 51.146C26.4516 48.8698 24.6 47.0182 22.3238 47.0182C21.2367 47.0182 20.1733 47.4587 19.4049 48.2271L14.9108 52.7212L13.6437 50.1898C13.37 49.6409 13.2258 49.0272 13.2258 48.4149V40.7783C13.2258 39.9464 13.4811 39.1502 13.9651 38.4717L19.0967 31.2875C19.5821 30.609 19.8387 29.8075 19.8387 28.9703V28.5206C19.8387 26.3238 18.0493 24.5344 15.8511 24.5344C14.8248 24.5344 13.9109 24.9377 13.2258 25.6638V7.34081C13.2258 5.84629 12.7087 4.48139 11.8688 3.37307H56.871C59.0585 3.37307 60.8387 5.15326 60.8387 7.34081V22.1722Z" fill="black"/>
<path fill-rule="evenodd" clip-rule="evenodd" d="M66.7832 38.9985L67.0667 29.1656L68.0024 28.7571L68.1158 38.2107L66.7832 38.9985Z" fill="black"/>
<path fill-rule="evenodd" clip-rule="evenodd" d="M61 39.582L62.3042 39.6404C62.3294 33.0813 65.7512 30.9186 67.436 30.8579C71.9886 31.0074 72.5104 36.9976 72.6812 39.6404L73.9854 39.6987C73.8873 33.3673 70.5154 29.8939 67.7479 29.9534C63.0289 30.1245 61.2317 35.0813 61 39.582Z" fill="black"/>
<defs>
<clipPath id="clip0">
<rect width="82" height="82" fill="white" transform="translate(0 0.727905)"/>
</clipPath>
<clipPath id="clip1">
<rect width="13" height="11" fill="white" transform="translate(61 28.7279)"/>
</clipPath>
</defs>
</svg>
