<svg width="83" height="84" viewBox="0 0 83 84" fill="none" xmlns="http://www.w3.org/2000/svg">
<path d="M3.28641 19.0415L40.9717 0.848636C41.3058 0.687499 41.6948 0.687499 42.0288 0.848636L79.7142 19.0415C80.1344 19.2443 80.4014 19.6699 80.4014 20.1364V64.3192C80.4014 64.7857 80.1344 65.2112 79.7142 65.414L42.0289 83.6069C41.862 83.6875 41.681 83.7279 41.5003 83.7279C41.3195 83.7279 41.1388 83.6875 40.9717 83.6069L3.28641 65.414C2.86622 65.2112 2.59923 64.7857 2.59923 64.3192V20.1366C2.59923 19.6697 2.86639 19.2445 3.28641 19.0415ZM41.5003 3.29373L6.6116 20.1364L16.7251 25.0188C16.7892 24.97 16.8568 24.925 16.931 24.8891L51.5827 8.16107L41.5003 3.29373ZM54.3285 9.53575L19.4905 26.354L26.6258 29.7986L61.4493 12.9872L54.3285 9.53575ZM18.6755 28.6604V41.3935L25.3403 44.611V31.878L18.6755 28.6604ZM5.03087 63.5563L40.2845 80.5748V39.0923L31.8754 35.0328C31.2707 34.7408 31.0172 34.0141 31.3091 33.4093C31.6011 32.8048 32.3278 32.5509 32.9327 32.843L41.5003 36.9792L44.8715 35.3517C45.4764 35.0594 46.2031 35.3133 46.4951 35.9179C46.787 36.5226 46.5335 37.2495 45.9288 37.5414L42.7161 39.0923V80.5748L77.9697 63.5559V22.0735L51.1244 35.0333C50.954 35.1156 50.7739 35.1545 50.5967 35.1545C50.1448 35.1545 49.7107 34.9013 49.501 34.467C49.2091 33.8624 49.4626 33.1355 50.0673 32.8435L76.389 20.1364L64.311 14.3057L27.7888 31.9372C27.7834 31.9446 27.7774 31.9513 27.7719 31.9586V46.5482C27.7719 46.9666 27.5568 47.3555 27.2024 47.5781C27.0056 47.7016 26.7811 47.7641 26.5559 47.7641C26.3757 47.7641 26.1949 47.724 26.0274 47.6431L16.931 43.2517C16.5108 43.0489 16.2438 42.6236 16.2438 42.1569V27.4868L5.03087 22.0736V63.5563V63.5563Z" fill="black"/>
<path d="M67.9358 58.8407L73.4662 56.1709C74.0712 55.8786 74.7978 56.1325 75.0897 56.7372C75.3817 57.3418 75.1281 58.0687 74.5235 58.3607L68.9931 61.0305C68.8227 61.1128 68.6426 61.1517 68.4654 61.1517C68.0135 61.1517 67.5794 60.8985 67.3697 60.4642C67.0776 59.8594 67.3312 59.1328 67.9358 58.8407Z" fill="black"/>
<path d="M62.846 55.5277L73.4585 50.4044C74.0633 50.1125 74.7901 50.366 75.082 50.9708C75.3738 51.5755 75.1203 52.3024 74.5156 52.5944L63.9031 57.7177C63.7327 57.7999 63.5526 57.8389 63.3754 57.8389C62.9235 57.8389 62.4894 57.5857 62.2797 57.1514C61.9878 56.5464 62.2413 55.8195 62.846 55.5277Z" fill="black"/>
<defs>
<clipPath id="clip0">
<rect width="83" height="83" fill="white" transform="matrix(-1 0 0 1 83 0.727905)"/>
</clipPath>
</defs>
</svg>
